<?xml version="1.0" encoding="UTF-8"?>
<svg id="Layer_1" xmlns="http://www.w3.org/2000/svg" xmlns:xlink="http://www.w3.org/1999/xlink" version="1.1" viewBox="0 0 595.3 595.3">
  <!-- Generator: Adobe Illustrator 29.8.2, SVG Export Plug-In . SVG Version: 2.1.1 Build 3)  -->
  <defs>
    <style>
      .st0 {
        fill: url(#linear-gradient2);
      }

      .st1 {
        fill: url(#linear-gradient1);
      }

      .st2 {
        fill: url(#linear-gradient9);
      }

      .st3 {
        fill: url(#linear-gradient3);
      }

      .st4 {
        fill: url(#linear-gradient6);
      }

      .st5 {
        fill: url(#linear-gradient8);
      }

      .st6 {
        fill: url(#linear-gradient7);
      }

      .st7 {
        fill: url(#linear-gradient5);
      }

      .st8 {
        fill: url(#linear-gradient4);
      }

      .st9 {
        fill: url(#linear-gradient18);
      }

      .st10 {
        fill: url(#linear-gradient13);
      }

      .st11 {
        fill: url(#linear-gradient12);
      }

      .st12 {
        fill: url(#linear-gradient15);
      }

      .st13 {
        fill: url(#linear-gradient16);
      }

      .st14 {
        fill: url(#linear-gradient11);
      }

      .st15 {
        fill: url(#linear-gradient10);
      }

      .st16 {
        fill: url(#linear-gradient17);
      }

      .st17 {
        fill: url(#linear-gradient14);
      }

      .st18 {
        fill: url(#linear-gradient);
      }
    </style>
    <linearGradient id="linear-gradient" x1="480.5" y1="137" x2="481" y2="137" gradientUnits="userSpaceOnUse">
      <stop offset=".2" stop-color="#13e5da"/>
      <stop offset=".4" stop-color="#1e7bd6"/>
      <stop offset=".6" stop-color="#4935bc"/>
      <stop offset="1" stop-color="#9b27cc"/>
    </linearGradient>
    <linearGradient id="linear-gradient1" y1="137" y2="137" xlink:href="#linear-gradient"/>
    <linearGradient id="linear-gradient2" x1="515" y1="196.1" x2="515.3" y2="196.1" xlink:href="#linear-gradient"/>
    <linearGradient id="linear-gradient3" x1="515" y1="196.1" x2="515.3" y2="196.1" xlink:href="#linear-gradient"/>
    <linearGradient id="linear-gradient4" x1="401" y1="63.1" x2="442.3" y2="176.6" xlink:href="#linear-gradient"/>
    <linearGradient id="linear-gradient5" x1="460.6" y1="141.4" x2="507.1" y2="223.5" xlink:href="#linear-gradient"/>
    <linearGradient id="linear-gradient6" x1="477.1" y1="36.3" x2="504.5" y2="88.3" xlink:href="#linear-gradient"/>
    <linearGradient id="linear-gradient7" x1="500.4" y1="94.5" x2="500.6" y2="94.5" xlink:href="#linear-gradient"/>
    <linearGradient id="linear-gradient8" x1="500.4" y1="94.5" x2="500.6" y2="94.5" xlink:href="#linear-gradient"/>
    <linearGradient id="linear-gradient9" x1="79.2" y1="317.4" x2="492.7" y2="317.4" xlink:href="#linear-gradient"/>
    <linearGradient id="linear-gradient10" x1="375.3" y1="208.3" x2="400.5" y2="427.1" xlink:href="#linear-gradient"/>
    <linearGradient id="linear-gradient11" x1="375.3" y1="208.3" x2="400.5" y2="427.1" xlink:href="#linear-gradient"/>
    <linearGradient id="linear-gradient12" x1="207.4" y1="210.3" x2="255.3" y2="449.8" xlink:href="#linear-gradient"/>
    <linearGradient id="linear-gradient13" x1="165.6" y1="387.1" x2="180.7" y2="553.9" xlink:href="#linear-gradient"/>
    <linearGradient id="linear-gradient14" x1="219" y1="382.3" x2="234.2" y2="549" xlink:href="#linear-gradient"/>
    <linearGradient id="linear-gradient15" x1="268.5" y1="377.8" x2="283.6" y2="544.5" xlink:href="#linear-gradient"/>
    <linearGradient id="linear-gradient16" x1="306.5" y1="374.3" x2="321.7" y2="541.1" xlink:href="#linear-gradient"/>
    <linearGradient id="linear-gradient17" x1="345.2" y1="370.8" x2="360.3" y2="537.5" xlink:href="#linear-gradient"/>
    <linearGradient id="linear-gradient18" x1="394.4" y1="366.3" x2="409.6" y2="533.1" xlink:href="#linear-gradient"/>
  </defs>
  <path class="st18" d="M480.5,137c.3,0,.5,0,.5,0h-.5Z"/>
  <path class="st1" d="M480.5,137h.5s-.2,0-.5,0Z"/>
  <path class="st0" d="M515.3,196.1h-.3c.2,0,.3,0,.3,0Z"/>
  <path class="st3" d="M515,196.1h.3s-.1,0-.3,0Z"/>
  <g>
    <path class="st8" d="M420.6,190.2c7.1-70.6,68.7-73.3,75.6-73.3-6.9,0-68.6-2.7-75.6-73.3-7.1,70.6-68.7,73.3-75.6,73.3,6.9,0,68.6,2.7,75.6,73.3Z"/>
    <path class="st7" d="M490.5,144.9c-4.8,47.4-46.1,49.2-50.8,49.2,4.6,0,46,1.8,50.8,49.2,4.8-47.4,46.1-49.2,50.8-49.2-4.6,0-46-1.8-50.8-49.2Z"/>
    <path class="st4" d="M490.3,92.2c3-29.8,29-30.9,31.9-30.9-2.9,0-28.9-1.1-31.9-30.9-3,29.8-29,30.9-31.9,30.9,2.9,0,28.9,1.1,31.9,30.9Z"/>
  </g>
  <path class="st6" d="M500.6,94.5h-.2c.1,0,.2,0,.2,0Z"/>
  <path class="st5" d="M500.4,94.5h.2s0,0-.2,0Z"/>
  <path class="st2" d="M477.5,288.5c-8.4,0-15.1,6.8-15.1,15.1v135.2c0,30.4-24.7,55.1-55.1,55.1h-242.8c-30.4,0-55.1-24.7-55.1-55.1v-242.8c0-30.4,24.7-55.1,55.1-55.1h135.2c8.4,0,15.1-6.8,15.1-15.1s-6.8-15.1-15.1-15.1h-135.2c-47.1,0-85.3,38.3-85.3,85.3v242.8c0,47.1,38.3,85.3,85.3,85.3h242.8c47.1,0,85.3-38.3,85.3-85.3v-135.2c0-8.4-6.8-15.1-15.1-15.1Z"/>
  <g>
    <g>
      <path class="st15" d="M383.1,343.5c-.4,0-1.2,0-1.6,0-.8,3.4-1.1,6.9-2.1,10.2-.7,2.4-2.2,4.5-2.4,7-1.1,10.8-3,21.4-3.2,32.3-.3,6.1,6.3,9.1,10.9,11.4.3-14.4-6.4-28.3-3.6-42.7,1.3-6,2.5-12,2-18.2h0ZM436.4,202.8c.8,1.3,1.7,3.3,3.6,2.8,2.6-.4,4.9-1.8,7.3-2.9-.7,1-1.4,1.9-2.1,2.8.7-.1,1.3-.3,2-.4-3.1,3-8.1,3.3-10.6,7.1.4.8.8,1.6,1.2,2.4-12,12.2-26.3,21.6-40.1,31.5-2.1,1.3-3.3,4-2.4,6.4,3.3,9.8,5.9,20.1,6,30.6.2,1.4-1.3,3.1-.1,4.3,4.2,5,6.1,11.4,8.2,17.5,3.6,10.4,5.7,21.8,12,31-6.8,4-14.4,6.5-22.2,7.6-.3,5.3-.6,10.6-2.6,15.6-.8,10.3-1.6,20.7-1.7,31,0,2.5-.3,5.4,1.6,7.3,3.9,4.2,9.4,6.5,14.8,7.8,2.7.4,3.3,3.3,3.5,5.6-6.8.3-13.7.3-20.5.2-7.1,1.5-14.4.8-21.5,0-3.4.7-6.9.5-10.3.4-.1-2.3.2-4.5.5-6.7,2.4-15-5-30-.6-44.8,2-5.9,3.2-12,2.9-18.2-4.8,0-9.6.9-14.3,0-1.3-.3-2.9-.8-3.5-2.2-.3-2.4,1.1-4.5,2-6.5,2.6-5.1,4.7-10.4,5.7-16.1,1.7-9.6,2.5-19.7,7.1-28.4-.4-6.6.7-13.1,1.4-19.6-3.1,3.2-7.4,6-8.2,10.9-2,6.1-3.6,12.4-6.7,18-.7-.1-1.4-.2-2.1-.4-1.3,3.1-2.2,6.3-2.9,9.5-.5-1.1-.7-2.3-.8-3.5-.9,1.9-1,3.9-1.4,5.9-2.7-1.3-3.2-4.1-4.7-6.3,1.2-2.7,4.4-4.2,4.6-7.4-1-.8-2.9-1.2-2.6-2.8.7-3.8,2.1-7.4,3.1-11.1,1.9-5.7,3.2-11.8,7.3-16.4,5.9-6.9,11.8-13.7,17.9-20.3,2.5-2.9,7.1-4.7,6.5-9.4-11.1,1.7-21.9-6.4-25.3-16.9-2.5.6-4.8,2.5-5.2,5.1-1.4,7.7,3,14.9,2.4,22.6,0,4.3-2.2,8.4-5.3,11.2,2.8-4.3,4.6-9.8,2.3-14.8-.7,9.9-7.1,20.6-17.6,21.7,1.4-1.7,3.2-3.2,4-5.4-4.7,5.8-13.5,6.3-19.9,3.7,2.5-.7,5.1-1.5,6.7-3.6,3.1-3.9,3.6-9.1,4.7-13.8,1.7-7.7,2.6-16,7.3-22.6,4.7-6.2,12.8-7.7,20.1-8,0-4.3,1.3-8.6,3.6-12.1,5.4-7.9,15.3-11.6,24.6-11.3,4.8.2,10.1,1.7,12.9,5.9-1.5-.2-2.9-.3-4.4,0,2.9,2.7,4.4,6.4,6.5,9.6,1.2,2,3.7,2,5.4,3.1.1,1.1-.5,2.1-.8,3.1,1.8,3.4.4,7.4,1.9,11,0,3.1-3.7,3.8-5.9,4.9-2.5.6-2.5,3.6-3.1,5.6,7.4-3.8,14.6-8.1,22-12.1,7.7-4.8,14.3-11.2,22-16,.7.7,1.3,1.4,2,2.1.7-.5,1.4-1.1,2-1.8-.3-1.2-.6-2.4-1.1-3.6"/>
      <path class="st14" d="M383.1,343.5c.6,6.2-.7,12.2-2,18.2-2.8,14.4,3.9,28.3,3.6,42.7-4.6-2.3-11.1-5.2-10.9-11.4.2-10.8,2.1-21.5,3.2-32.3.2-2.5,1.6-4.7,2.4-7,1-3.3,1.4-6.8,2.1-10.2.4,0,1.2,0,1.6,0h0ZM435.4,203.4c.4,1.2.8,2.4,1.1,3.6-.6.7-1.2,1.3-2,1.8-.7-.7-1.3-1.4-2-2.1-7.7,4.8-14.3,11.2-22,16-7.3,4-14.6,8.2-22,12.1.6-2,.6-5,3.1-5.6,2.2-1.1,5.9-1.8,5.9-4.9-1.5-3.5,0-7.6-1.9-11,.3-1,.9-2,.8-3.1-1.7-1.2-4.2-1.1-5.4-3.1-2.1-3.3-3.6-7-6.5-9.6,1.5-.2,2.9-.1,4.4,0-2.8-4.2-8.1-5.7-12.9-5.9-9.2-.3-19.1,3.4-24.6,11.3-2.4,3.6-3.6,7.8-3.6,12.1-7.2.3-15.4,1.8-20.1,8-4.7,6.5-5.6,14.9-7.3,22.6-1.1,4.7-1.6,9.9-4.7,13.8-1.6,2.1-4.3,2.9-6.7,3.6,6.4,2.6,15.2,2.1,19.9-3.7-.7,2.2-2.6,3.6-4,5.4,10.4-1,16.9-11.8,17.6-21.7,2.3,5,.5,10.5-2.3,14.8,3.1-2.9,5.2-6.9,5.3-11.2.5-7.7-3.8-14.9-2.4-22.6.5-2.7,2.7-4.6,5.2-5.1,3.5,10.5,14.2,18.7,25.3,16.9.6,4.6-4,6.4-6.5,9.4-6.2,6.6-12.1,13.4-17.9,20.3-4.1,4.6-5.4,10.7-7.3,16.4-1,3.7-2.4,7.3-3.1,11.1-.4,1.6,1.6,2,2.6,2.8-.3,3.2-3.5,4.7-4.6,7.4,1.5,2.2,2,5,4.7,6.3.5-2,.6-4,1.4-5.9.2,1.2.3,2.4.8,3.5.8-3.2,1.6-6.4,2.9-9.5.7.1,1.4.2,2.1.4,3.1-5.6,4.7-11.9,6.7-18,.7-4.8,5-7.6,8.2-10.9-.7,6.5-1.8,13.1-1.4,19.6-4.6,8.8-5.4,18.8-7.1,28.4-1,5.7-3.1,11-5.7,16.1-.9,2.1-2.3,4.2-2,6.5.6,1.4,2.2,1.9,3.5,2.2,4.7.8,9.5,0,14.3,0,.4,6.2-.9,12.4-2.9,18.2-4.4,14.8,3,29.9.6,44.8-.4,2.2-.7,4.5-.5,6.7,3.5,0,6.9.3,10.3-.4,7.1.8,14.4,1.4,21.5,0,6.8.1,13.7,0,20.5-.2-.2-2.3-.8-5.2-3.5-5.6-5.5-1.3-10.9-3.6-14.8-7.8-1.8-2-1.5-4.8-1.6-7.3,0-10.4.8-20.7,1.7-31,1.9-5,2.3-10.3,2.6-15.6,7.8-1.1,15.4-3.7,22.2-7.6-6.3-9.2-8.3-20.6-12-31-2.1-6.1-4-12.5-8.2-17.5-1.2-1.2.3-2.9.1-4.3,0-10.5-2.7-20.7-6-30.6-.9-2.4.3-5.1,2.4-6.4,13.8-9.9,28.1-19.3,40.1-31.5-.4-.8-.8-1.6-1.2-2.4,2.5-3.8,7.5-4,10.6-7.1-.7.1-1.3.3-2,.4.8-.9,1.5-1.9,2.1-2.8-2.3,1.1-4.7,2.5-7.3,2.9-1.9.5-2.8-1.5-3.6-2.8"/>
    </g>
    <path class="st11" d="M295.7,384.7l-10-26.3h-85.1l-10,26.8c-3.9,10.5-7.2,17.5-10,21.2-2.8,3.7-7.3,5.5-13.6,5.5s-10-2-14.1-5.9c-4.1-3.9-6.1-8.3-6.1-13.3s.5-5.8,1.4-8.9c1-3,2.5-7.3,4.7-12.7l53.5-135.9c1.5-3.9,3.4-8.6,5.5-14.1,2.1-5.5,4.4-10,6.9-13.6,2.4-3.6,5.6-6.5,9.6-8.8,3.9-2.2,8.8-3.4,14.6-3.4s10.8,1.1,14.8,3.4c3.9,2.2,7.1,5.1,9.6,8.6,2.4,3.5,4.5,7.3,6.1,11.3,1.7,4,3.8,9.4,6.4,16.2l54.7,135c4.3,10.3,6.4,17.8,6.4,22.4s-2,9.3-6.1,13.3c-4,4-8.9,6.1-14.6,6.1s-6.2-.6-8.6-1.8c-2.4-1.2-4.4-2.8-6-4.9-1.6-2-3.4-5.2-5.2-9.4-1.9-4.2-3.5-8-4.8-11.2ZM211.7,326.6h62.5l-31.5-86.4-31,86.4Z"/>
  </g>
  <g>
    <path class="st10" d="M195.9,454.3v9.8c0,1.3-.1,2.3-.4,3.1-.3.8-.7,1.5-1.4,2.1-.7.6-1.6,1.2-2.6,1.8-3.1,1.7-6.1,2.9-8.9,3.7-2.9.8-6,1.2-9.4,1.2s-7.5-.6-10.7-1.8-6-3-8.3-5.3c-2.3-2.3-4-5.1-5.3-8.4-1.2-3.3-1.8-6.9-1.8-11s.6-7.6,1.8-10.9c1.2-3.3,2.9-6.1,5.2-8.4s5.1-4.1,8.4-5.3c3.3-1.2,7-1.8,11.2-1.8s6.5.5,9.1,1.4,4.8,2.1,6.5,3.5c1.7,1.4,2.9,2.9,3.7,4.4.8,1.6,1.3,2.9,1.3,4.2s-.5,2.4-1.4,3.3-2.1,1.4-3.5,1.4-1.5-.2-2.1-.5c-.7-.3-1.3-.8-1.7-1.5-1.3-2-2.4-3.5-3.2-4.5-.9-1-2.1-1.9-3.6-2.6-1.5-.7-3.4-1-5.7-1s-4.5.4-6.4,1.2c-1.9.8-3.5,2-4.8,3.6-1.3,1.6-2.4,3.5-3.1,5.8-.7,2.3-1.1,4.8-1.1,7.6,0,6,1.4,10.6,4.1,13.9,2.8,3.2,6.6,4.9,11.5,4.9s4.6-.3,6.8-.9c2.1-.6,4.2-1.5,6.4-2.7v-8.3h-8c-1.9,0-3.4-.3-4.4-.9-1-.6-1.5-1.6-1.5-3s.4-2.1,1.2-2.8c.8-.7,1.9-1.1,3.4-1.1h11.8c1.4,0,2.7.1,3.7.4s1.8.8,2.4,1.7c.6.9.9,2.2.9,4Z"/>
    <path class="st17" d="M239.5,431.9h-23.3v12.6h21.5c1.6,0,2.8.4,3.5,1.1.8.7,1.2,1.6,1.2,2.8s-.4,2.1-1.2,2.8c-.8.7-2,1.1-3.6,1.1h-21.5v14.6h24.1c1.6,0,2.9.4,3.7,1.1.8.8,1.2,1.8,1.2,3s-.4,2.2-1.2,2.9c-.8.8-2.1,1.1-3.7,1.1h-28.2c-2.3,0-3.9-.5-4.9-1.5-1-1-1.5-2.6-1.5-4.8v-38.5c0-1.5.2-2.7.7-3.6s1.1-1.6,2.1-2.1c.9-.4,2.1-.6,3.6-.6h27.4c1.7,0,2.9.4,3.7,1.1.8.7,1.2,1.7,1.2,2.9s-.4,2.2-1.2,2.9-2,1.1-3.7,1.1Z"/>
    <path class="st12" d="M266.9,429.3l19.9,30.1v-30.4c0-2,.4-3.5,1.3-4.4.8-1,2-1.5,3.4-1.5s2.7.5,3.5,1.5c.9,1,1.3,2.5,1.3,4.4v40.2c0,4.5-1.9,6.7-5.6,6.7s-1.8-.1-2.5-.4c-.7-.3-1.4-.7-2.1-1.3-.7-.6-1.3-1.3-1.8-2-.6-.8-1.1-1.6-1.7-2.4l-19.4-29.8v30c0,2-.5,3.4-1.4,4.4s-2.1,1.5-3.5,1.5-2.6-.5-3.5-1.5c-.9-1-1.3-2.5-1.3-4.4v-39.5c0-1.7.2-3,.6-3.9.4-1,1.2-1.9,2.2-2.6,1-.7,2.1-1,3.3-1s1.7.2,2.4.5c.7.3,1.2.7,1.7,1.2s1,1.2,1.5,2,1.1,1.7,1.6,2.5Z"/>
    <path class="st13" d="M308.1,469.6v-40.3c0-2.1.5-3.7,1.4-4.7s2.2-1.6,3.7-1.6,2.8.5,3.8,1.6c1,1,1.4,2.6,1.4,4.7v40.3c0,2.1-.5,3.7-1.4,4.7s-2.2,1.6-3.8,1.6-2.7-.5-3.7-1.6c-1-1.1-1.4-2.6-1.4-4.7Z"/>
    <path class="st16" d="M330.2,453.9v-24.6c0-2.1.5-3.7,1.4-4.7s2.2-1.6,3.7-1.6,2.9.5,3.8,1.6c.9,1,1.4,2.6,1.4,4.7v25.2c0,2.9.3,5.3,1,7.2.6,1.9,1.8,3.4,3.4,4.5,1.6,1.1,3.9,1.6,6.8,1.6s6.9-1.1,8.6-3.2c1.7-2.2,2.5-5.4,2.5-9.8v-25.4c0-2.1.5-3.7,1.4-4.7.9-1,2.2-1.6,3.7-1.6s2.8.5,3.8,1.6c1,1,1.4,2.6,1.4,4.7v24.6c0,4-.4,7.3-1.2,10-.8,2.7-2.3,5-4.4,7-1.9,1.7-4,3-6.5,3.8-2.5.8-5.4,1.2-8.7,1.2s-7.3-.4-10.2-1.3c-2.8-.8-5.2-2.2-6.9-3.9-1.8-1.8-3.1-4.1-3.9-6.8-.8-2.8-1.3-6.1-1.3-10Z"/>
    <path class="st9" d="M423.3,459.7c0,3.1-.8,5.9-2.4,8.3s-3.9,4.4-7,5.8c-3.1,1.4-6.7,2.1-10.9,2.1s-9.2-1-12.5-2.9c-2.3-1.4-4.2-3.2-5.7-5.5-1.5-2.3-2.2-4.5-2.2-6.7s.4-2.3,1.3-3.2c.9-.9,2-1.3,3.3-1.3s2,.3,2.8,1c.8.7,1.4,1.7,1.9,3.1.7,1.6,1.4,3,2.1,4.1s1.8,2,3.2,2.7c1.4.7,3.2,1.1,5.4,1.1s5.6-.7,7.5-2.1c1.9-1.4,2.9-3.2,2.9-5.4s-.5-3.1-1.6-4.1c-1-1.1-2.4-1.9-4-2.4-1.6-.6-3.8-1.2-6.6-1.8-3.7-.9-6.8-1.9-9.2-3-2.5-1.2-4.4-2.7-5.9-4.7-1.5-2-2.2-4.5-2.2-7.4s.8-5.3,2.3-7.5c1.5-2.2,3.8-3.9,6.7-5,2.9-1.2,6.3-1.8,10.3-1.8s5.9.4,8.1,1.2c2.3.8,4.2,1.8,5.7,3.1,1.5,1.3,2.6,2.6,3.3,4.1.7,1.4,1,2.8,1,4.2s-.4,2.3-1.3,3.3c-.9,1-2,1.5-3.3,1.5s-2.1-.3-2.7-.9c-.6-.6-1.3-1.6-2-2.9-.9-1.9-2-3.4-3.3-4.5-1.3-1.1-3.4-1.6-6.3-1.6s-4.8.6-6.5,1.8c-1.6,1.2-2.5,2.6-2.5,4.2s.3,1.9.8,2.7,1.3,1.4,2.3,1.9,2,1,3,1.3c1,.3,2.7.7,5,1.3,2.9.7,5.5,1.4,7.8,2.2,2.3.8,4.3,1.8,6,3s2.9,2.6,3.8,4.4c.9,1.8,1.4,4,1.4,6.5Z"/>
  </g>
</svg>